<svg id="visual" viewBox="0 0 960 540" width="960" height="540" xmlns="http://www.w3.org/2000/svg" xmlns:xlink="http://www.w3.org/1999/xlink" version="1.1"><rect x="0" y="0" width="960" height="540" fill="#FFFFFF"></rect><path d="M0 251L22.8 247.8C45.7 244.7 91.3 238.3 137 233C182.7 227.7 228.3 223.3 274 231.2C319.7 239 365.3 259 411.2 248.7C457 238.3 503 197.7 548.8 171C594.7 144.3 640.3 131.7 686 140.3C731.7 149 777.3 179 823 205.5C868.7 232 914.3 255 937.2 266.5L960 278L960 0L937.2 0C914.3 0 868.7 0 823 0C777.3 0 731.7 0 686 0C640.3 0 594.7 0 548.8 0C503 0 457 0 411.2 0C365.3 0 319.7 0 274 0C228.3 0 182.7 0 137 0C91.3 0 45.7 0 22.8 0L0 0Z" fill="#0066ff" stroke-linecap="round" stroke-linejoin="miter"></path></svg>