<svg id="Layer_1" data-name="Layer 1" xmlns="http://www.w3.org/2000/svg" viewBox="0 0 1366 769.5"><defs><style>.cls-1,.cls-3{fill:#234fdb;}.cls-2{fill:#e5e5e5;stroke-linecap:round;}.cls-2,.cls-3{stroke:#000;stroke-miterlimit:10;}</style></defs><title>back</title><path class="cls-1" d="M1366-1,361,0C276.5,11.06,235.9,42.28,214.5,70.5c-28.12,37.07-23.76,69.81-73,144-23.39,35.23-40.28,51.81-48,59a279.25,279.25,0,0,1-93,57v438h1036a606.3,606.3,0,0,1,71.92-39.86c91.73-43,137.13-36,178.58-62.64,34.26-22,73.51-72,79.5-200.5v-234Q1366.25,115.25,1366-1Z" transform="translate(-0.5 1)"/><path class="cls-1" d="M1583,406" transform="translate(-0.5 1)"/><path class="cls-2" d="M-59.5,647.5" transform="translate(-0.5 1)"/><path class="cls-3" d="M-59.5,663.5" transform="translate(-0.5 1)"/><path class="cls-3" d="M1492.5,51.5" transform="translate(-0.5 1)"/><path class="cls-2" d="M-304.5,354.5" transform="translate(-0.5 1)"/><path class="cls-2" d="M280.5,828.5" transform="translate(-0.5 1)"/><path class="cls-3" d="M1510.5,369.5" transform="translate(-0.5 1)"/><path class="cls-2" d="M-240.5,449.5" transform="translate(-0.5 1)"/><path class="cls-2" d="M-134.5,577.5" transform="translate(-0.5 1)"/><path class="cls-2" d="M-110.5,616.5" transform="translate(-0.5 1)"/><path class="cls-3" d="M240.5-69.5" transform="translate(-0.5 1)"/></svg>